<svg version="1.1" width="100%" xmlns="http://www.w3.org/2000/svg" xmlns:xlink="http://www.w3.org/1999/xlink" x="0px" y="0px" viewBox="0 0 351 238" style="enable-background:new 0 0 351 238;" xml:space="preserve">
      <style type="text/css">
							.st0{fill:#FFFFFF;}
							.st1{fill:#FF8E00;}
						</style>
      <g>
        <g>
          <path class="st0" d="M21.1,237.4c-0.4,0.2-1.1,0.3-2,0.5c-0.9,0.1-1.9,0.2-3.1,0.2c-1.6,0-3-0.2-4.2-0.6c-1.2-0.4-2.2-0.9-2.9-1.6

									c-0.8-0.7-1.4-1.5-1.8-2.5c-0.4-1-0.6-2.1-0.6-3.3v-17.5H0.7v-4h5.9v-7.9h5v7.9h9.1v4h-9.1v16.8c0,0.7,0.1,1.3,0.3,1.8

									c0.2,0.6,0.5,1.1,1,1.5c0.4,0.4,1,0.7,1.7,1c0.7,0.2,1.5,0.3,2.5,0.3c0.7,0,1.4,0,2.1-0.2c0.7-0.1,1.4-0.2,2-0.4V237.4z"></path>
          <path class="st0" d="M67.4,201.8v-5.2h5v5.2H67.4z M67.5,237.3v-28.8h5v28.8H67.5z"></path>
          <path class="st0" d="M134.9,207.8c1.5,0,2.9,0.1,4.2,0.4c1.3,0.3,2.5,0.7,3.5,1.2v3.9c-1.3-0.5-2.6-0.8-3.7-1.1

									c-1.1-0.2-2.3-0.4-3.5-0.4c-1.2,0-2.5,0.2-3.7,0.6c-1.2,0.4-2.3,1-3.3,1.9c-1,0.9-1.7,2-2.3,3.5c-0.6,1.4-0.9,3.2-0.9,5.4

									c0,1.6,0.2,3,0.7,4.3c0.4,1.3,1.1,2.4,2,3.4c0.9,1,2,1.7,3.3,2.2c1.3,0.5,2.8,0.8,4.5,0.8c1.2,0,2.5-0.1,3.8-0.4

									c1.3-0.3,2.5-0.6,3.7-1.1v3.9c-0.4,0.2-0.8,0.4-1.4,0.6c-0.6,0.2-1.2,0.4-1.9,0.5c-0.7,0.2-1.5,0.3-2.2,0.4

									c-0.8,0.1-1.6,0.1-2.4,0.1c-2.1,0-4-0.3-5.8-0.9c-1.8-0.6-3.4-1.5-4.8-2.7c-1.4-1.2-2.5-2.7-3.2-4.6c-0.8-1.9-1.2-4.1-1.2-6.6

									c0-1.9,0.2-3.6,0.6-5.1s1-2.8,1.7-4c0.7-1.2,1.6-2.1,2.6-2.9c1-0.8,2-1.5,3.1-2c1.1-0.5,2.2-0.9,3.4-1.1

									C132.7,207.9,133.8,207.8,134.9,207.8z"></path>
          <path class="st0" d="M209.7,208.5h6.5l-14.9,13.2l14.9,15.5H210L195.4,222h-0.1v15.3h-5v-43.8h5v27.9h0.1L209.7,208.5z"></path>
          <path class="st0" d="M275.8,234c1.6,0,3.2-0.1,4.5-0.4c1.4-0.3,2.7-0.6,4.1-1.1v3.9c-1.1,0.5-2.4,0.9-4,1.2

									c-1.6,0.3-3.3,0.4-5.2,0.4c-2.2,0-4.2-0.3-6.1-0.8s-3.6-1.4-5-2.5c-1.4-1.2-2.5-2.7-3.3-4.6c-0.8-1.9-1.2-4.2-1.2-6.8

									c0-2.6,0.4-4.9,1.2-6.8c0.8-1.9,1.8-3.5,3.1-4.8c1.3-1.3,2.8-2.3,4.4-2.9c1.7-0.6,3.4-1,5.2-1c1.7,0,3.3,0.3,4.8,0.8

									c1.5,0.5,2.8,1.4,3.9,2.5s1.9,2.6,2.6,4.5c0.6,1.8,0.9,4,0.9,6.5c0,0.2,0,0.4,0,0.6c0,0.2,0,0.6,0,1.2h-21.1

									c0,1.8,0.3,3.4,0.9,4.7c0.6,1.3,1.4,2.3,2.4,3.1c1,0.8,2.2,1.4,3.6,1.7S274.2,234,275.8,234z M273.2,211.8c-1.1,0-2.2,0.2-3.2,0.6

									s-1.8,1-2.6,1.7c-0.7,0.7-1.3,1.6-1.8,2.6c-0.5,1-0.7,2-0.8,3.1h15.6c0-1.1-0.2-2.2-0.5-3.2c-0.3-1-0.8-1.8-1.4-2.6

									c-0.6-0.7-1.4-1.3-2.2-1.7C275.4,212,274.4,211.8,273.2,211.8z"></path>
          <path class="st0" d="M349.5,237.4c-0.4,0.2-1.1,0.3-2,0.5c-0.9,0.1-1.9,0.2-3.1,0.2c-1.6,0-3-0.2-4.2-0.6

									c-1.2-0.4-2.2-0.9-2.9-1.6c-0.8-0.7-1.4-1.5-1.8-2.5c-0.4-1-0.6-2.1-0.6-3.3v-17.5h-5.9v-4h5.9v-7.9h5v7.9h9.1v4h-9.1v16.8

									c0,0.7,0.1,1.3,0.3,1.8c0.2,0.6,0.5,1.1,1,1.5c0.4,0.4,1,0.7,1.7,1c0.7,0.2,1.5,0.3,2.5,0.3c0.7,0,1.4,0,2.1-0.2

									c0.7-0.1,1.4-0.2,2-0.4V237.4z"></path>
        </g>
        <g>
          <path class="st0" d="M16.8,175.7H0.1V38.5h104.4v15.1H16.8v44.3h77.5v15.1H16.8V175.7z"></path>
          <path class="st0" d="M309.7,115c8.4,12.1,16.7,24.5,24.9,37.3h0.6c-0.9-13.3-1.3-26.9-1.3-40.8v-73h16.8v137.2H334l-53.8-76.5

									c-9.3-13.3-17.6-25.8-24.9-37.3h-0.6c0.9,12.5,1.3,27.1,1.3,43.8v70h-16.7V38.5h16.6L309.7,115z"></path>
        </g>
        <path class="st0" d="M231.9,175.7h-18.2l-16.4-41.3h-0.1l-1-2.5c3.2-1.4,6.1-3,8.7-4.9c1.9-1.4,3.6-2.9,5.2-4.5L231.9,175.7z"></path>
        <g>
          <path class="st1" d="M206.4,0.3v83.1c0,2.5-0.1,5.2-0.4,7.9c-0.3,2.7-0.8,5.2-1.4,7.4c-0.5,1.8-1.2,3.6-2,5.3l7.5,18.5

									c1.9-2,3.5-4.1,5-6.4c2.6-4.2,4.5-8.8,5.8-13.7c0.8-2.9,1.3-6.1,1.6-9.5c0.3-3.4,0.5-6.7,0.5-9.8V0.3H206.4z M147.2,116.2

									c-5.2-3.6-9-8.5-11.3-14.7c0-0.1-0.1-0.2-0.1-0.3c-1-2.6-1.7-5.5-2.1-8.7c-0.4-3.2-0.7-6.3-0.7-9.3V0.3h-16.7V83

									c0,3.6,0.2,7.3,0.7,11.1c0.4,3.8,1.2,7.4,2.2,10.7c1.4,4.6,3.4,8.9,6,12.8c0.8,1.2,1.7,2.4,2.7,3.5c2.1,2.4,4.5,4.6,7.3,6.6

									c1.9,1.3,3.9,2.5,6.1,3.5l4.8-11.9H146L147.2,116.2z"></path>
          <path class="st1" d="M210.2,122.4c-1.5,1.6-3.3,3.1-5.2,4.5c-2.6,1.9-5.5,3.6-8.7,4.9l-4.9-12.6h0.1l-0.8-2c0.9-0.5,1.7-1,2.4-1.6

									c2.9-2.1,5.3-4.5,7.2-7.5c0.9-1.4,1.7-2.8,2.4-4.4L210.2,122.4z"></path>
          <path class="st1" d="M196.3,131.8c-2,0.9-4.1,1.6-6.3,2.3c-5.8,1.7-12.7,2.6-20.5,2.6c-7.5,0-14.1-0.8-19.7-2.4

									c-3.1-0.9-5.9-1.9-8.4-3.1l4.8-11.9H146l1.2-3c0.2,0.1,0.3,0.3,0.5,0.4c5.6,3.7,12.9,5.6,22,5.6c5,0,9.4-0.6,13.2-1.7

									c2.8-0.8,5.4-1.9,7.6-3.3l0.8,2h-0.1L196.3,131.8z"></path>
        </g>
        <path class="st0" d="M202.6,103.8c-0.7,1.5-1.5,3-2.4,4.4c-1.9,2.9-4.3,5.4-7.2,7.5c-0.8,0.6-1.6,1.1-2.4,1.6l-4.4-10.9

								c-5.6-14.2-11.4-29.7-17.2-46.6h-0.4c-6.1,17.1-12,32.6-17.5,46.6l-3.9,9.9l-1.2,3h0.2l-4.8,11.9l-1.3,3.2H140l-16.4,41.3h-18

								l22.2-54.6l7.9-19.5l25.7-63.1H176L202.6,103.8z"></path>
      </g>
      <polygon class="st1" points="198,131 193,133 188,119 191.1,117 "></polygon>
      <polygon class="st1" points="210.7,121.7 201,129 202,106 203,103 "></polygon>
      </svg>
